<svg width="22" height="21" viewBox="0 0 22 21" fill="none" xmlns="http://www.w3.org/2000/svg">
<path d="M2.86482 17.3333L2.86482 8.30556L1.13148 9.62963L-3.70775e-08 8.11296L10.5685 -5.39394e-08L21.1611 8.08889L20.0056 9.62963L10.5685 2.40741L4.79074 6.83704L4.79074 15.4074L8.64259 15.4074L8.64259 17.3333L2.86482 17.3333ZM15.8648 19.6204C15.1907 20.0858 14.4485 20.2824 13.638 20.2102C12.8275 20.138 12.1333 19.813 11.5556 19.2352C10.9778 18.6574 10.6528 17.9633 10.5806 17.1528C10.5083 16.3423 10.7049 15.6 11.1704 14.9259C10.7049 14.2519 10.5083 13.5096 10.5806 12.6991C10.6528 11.8886 10.9778 11.1944 11.5556 10.6167C12.1333 10.0389 12.8275 9.71389 13.638 9.64167C14.4485 9.56944 15.1907 9.76605 15.8648 10.2315C16.5389 9.76605 17.2812 9.56944 18.0917 9.64167C18.9022 9.71389 19.5963 10.0389 20.1741 10.6167C20.7519 11.1944 21.0769 11.8886 21.1491 12.6991C21.2213 13.5096 21.0247 14.2519 20.5593 14.9259C21.0247 15.6 21.2213 16.3423 21.1491 17.1528C21.0769 17.9633 20.7519 18.6574 20.1741 19.2352C19.5963 19.813 18.9022 20.138 18.0917 20.2102C17.2812 20.2824 16.5389 20.0858 15.8648 19.6204ZM15.8648 17.2611L16.9722 18.0315C17.2611 18.2401 17.5741 18.3284 17.9111 18.2963C18.2481 18.2642 18.5451 18.1198 18.8019 17.863C19.0586 17.6062 19.2031 17.3093 19.2352 16.9722C19.2673 16.6352 19.179 16.3222 18.9704 16.0333L18.2 14.9259L18.9704 13.8185C19.179 13.5296 19.2673 13.2167 19.2352 12.8796C19.2031 12.5426 19.0586 12.2457 18.8019 11.9889C18.5451 11.7321 18.2481 11.5877 17.9111 11.5556C17.5741 11.5235 17.2611 11.6117 16.9722 11.8204L15.8648 12.5907L14.7574 11.8204C14.4685 11.6117 14.1556 11.5235 13.8185 11.5556C13.4815 11.5877 13.1846 11.7321 12.9278 11.9889C12.671 12.2457 12.5265 12.5426 12.4944 12.8796C12.4623 13.2167 12.5506 13.5296 12.7593 13.8185L13.5296 14.9259L12.7593 16.0333C12.5506 16.3222 12.4623 16.6352 12.4944 16.9722C12.5265 17.3093 12.671 17.6062 12.9278 17.863C13.1846 18.1198 13.4815 18.2642 13.8185 18.2963C14.1556 18.3284 14.4685 18.2401 14.7574 18.0315L15.8648 17.2611ZM16.7194 15.7806C16.9522 15.5478 17.0685 15.263 17.0685 14.9259C17.0685 14.5889 16.9522 14.304 16.7194 14.0713C16.4867 13.8386 16.2019 13.7222 15.8648 13.7222C15.5278 13.7222 15.2429 13.8386 15.0102 14.0713C14.7775 14.304 14.6611 14.5889 14.6611 14.9259C14.6611 15.263 14.7775 15.5478 15.0102 15.7806C15.2429 16.0133 15.5278 16.1296 15.8648 16.1296C16.2019 16.1296 16.4867 16.0133 16.7194 15.7806Z" fill="#4B0222"/>
</svg>
